<?xml version="1.0" encoding="UTF-8"?>
<!DOCTYPE svg PUBLIC "-//W3C//DTD SVG 1.1//EN" "http://www.w3.org/Graphics/SVG/1.1/DTD/svg11.dtd">
<svg xmlns="http://www.w3.org/2000/svg" version="1.1" width="512px" height="512px" style="shape-rendering:geometricPrecision; text-rendering:geometricPrecision; image-rendering:optimizeQuality; fill-rule:evenodd; clip-rule:evenodd" xmlns:xlink="http://www.w3.org/1999/xlink">
<g><path style="opacity:0.968" fill="#56eac9" d="M 218.5,4.5 C 225.5,4.5 232.5,4.5 239.5,4.5C 240.263,5.26791 241.263,5.76791 242.5,6C 221.632,27.035 200.632,47.8683 179.5,68.5C 179.5,58.8333 179.5,49.1667 179.5,39.5C 180.268,40.2625 180.768,41.2625 181,42.5C 193.702,29.9652 206.202,17.2985 218.5,4.5 Z"/></g>
<g><path style="opacity:0.988" fill="#56e3cb" d="M 239.5,4.5 C 253.167,4.5 266.833,4.5 280.5,4.5C 277.695,5.31948 274.695,5.81948 271.5,6C 228.916,49.0845 185.916,91.5845 142.5,133.5C 137.238,130.244 132.238,126.578 127.5,122.5C 142.912,105.585 158.912,89.0852 175.5,73C 175.272,72.6012 174.938,72.4346 174.5,72.5C 176.349,71.407 178.016,70.0737 179.5,68.5C 200.632,47.8683 221.632,27.035 242.5,6C 241.263,5.76791 240.263,5.26791 239.5,4.5 Z"/></g>
<g><path style="opacity:0.991" fill="#55ddcd" d="M 280.5,4.5 C 287.5,4.5 294.5,4.5 301.5,4.5C 300.048,5.30192 298.382,5.80192 296.5,6C 279.965,22.3681 263.632,38.8681 247.5,55.5C 241.833,55.5 236.167,55.5 230.5,55.5C 230.5,61.1667 230.5,66.8333 230.5,72.5C 210.494,91.5001 191.494,110.833 173.5,130.5C 163.783,138.439 153.449,139.439 142.5,133.5C 185.916,91.5845 228.916,49.0845 271.5,6C 274.695,5.81948 277.695,5.31948 280.5,4.5 Z"/></g>
<g><path style="opacity:0.994" fill="#54d7cf" d="M 301.5,4.5 C 307.683,4.13041 313.349,5.46374 318.5,8.5C 302.527,23.8063 286.86,39.473 271.5,55.5C 263.5,55.5 255.5,55.5 247.5,55.5C 263.632,38.8681 279.965,22.3681 296.5,6C 298.382,5.80192 300.048,5.30192 301.5,4.5 Z"/></g>
<g><path style="opacity:0.996" fill="#57f0c7" d="M 218.5,4.5 C 206.202,17.2985 193.702,29.9652 181,42.5C 180.768,41.2625 180.268,40.2625 179.5,39.5C 178.811,12.8636 191.811,1.19693 218.5,4.5 Z"/></g>
<g><path style="opacity:0.992" fill="#53d1d1" d="M 318.5,8.5 C 324.425,11.4214 328.092,16.0881 329.5,22.5C 313.167,38.5 296.833,54.5 280.5,70.5C 280.5,65.5 280.5,60.5 280.5,55.5C 277.5,55.5 274.5,55.5 271.5,55.5C 286.86,39.473 302.527,23.8063 318.5,8.5 Z"/></g>
<g><path style="opacity:0.99" fill="#53cbd4" d="M 329.5,22.5 C 330.302,23.9516 330.802,25.6183 331,27.5C 331.5,34.8258 331.666,42.1591 331.5,49.5C 315.167,65.5 298.833,81.5 282.5,97.5C 281.732,96.7375 281.232,95.7375 281,94.5C 280.5,86.5069 280.334,78.5069 280.5,70.5C 296.833,54.5 313.167,38.5 329.5,22.5 Z"/></g>
<g><path style="opacity:0.981" fill="#52c4d6" d="M 331.5,49.5 C 331.334,56.175 331.5,62.8417 332,69.5C 332.995,70.0659 333.828,70.7326 334.5,71.5C 321.167,84.5 307.833,97.5 294.5,110.5C 288.434,108.1 284.434,103.767 282.5,97.5C 298.833,81.5 315.167,65.5 331.5,49.5 Z"/></g>
<g><path style="opacity:0.968" fill="#58fbc3" d="M 120.5,52.5 C 88.5,85.5035 56.1666,117.504 23.5,148.5C 24.1719,143.987 26.0052,139.987 29,136.5C 50.7883,109.043 72.9549,81.8764 95.5,55C 103.48,50.202 111.813,49.3687 120.5,52.5 Z"/></g>
<g><path style="opacity:0.99" fill="#50b7db" d="M 404.5,50.5 C 380.035,75.4653 355.368,100.299 330.5,125C 331.056,125.383 331.389,125.883 331.5,126.5C 327.665,124.75 323.999,122.75 320.5,120.5C 337.965,102.535 355.632,84.7014 373.5,67C 372.944,66.6174 372.611,66.1174 372.5,65.5C 378.12,60.0542 384.454,55.5542 391.5,52C 395.751,50.8054 400.085,50.3054 404.5,50.5 Z"/></g>
<g><path style="opacity:0.994" fill="#50b1dd" d="M 404.5,50.5 C 412.179,52.0047 418.179,56.0047 422.5,62.5C 398.035,86.4651 373.701,110.632 349.5,135C 348.552,135.483 347.552,135.649 346.5,135.5C 340.995,133.251 335.995,130.251 331.5,126.5C 331.389,125.883 331.056,125.383 330.5,125C 355.368,100.299 380.035,75.4653 404.5,50.5 Z"/></g>
<g><path style="opacity:0.996" fill="#58f6c5" d="M 120.5,52.5 C 125.557,55.3548 130.223,58.6882 134.5,62.5C 134.631,63.2389 134.464,63.9056 134,64.5C 98.6319,99.7013 63.4652,135.035 28.5,170.5C 22.8003,164.036 21.1336,156.703 23.5,148.5C 56.1666,117.504 88.5,85.5035 120.5,52.5 Z"/></g>
<g><path style="opacity:0.987" fill="#4fabdf" d="M 422.5,62.5 C 426.136,67.1424 429.803,71.8091 433.5,76.5C 421.085,88.9186 408.419,100.919 395.5,112.5C 385.919,121.238 375.585,129.071 364.5,136C 358.297,138.137 352.297,137.971 346.5,135.5C 347.552,135.649 348.552,135.483 349.5,135C 373.701,110.632 398.035,86.4651 422.5,62.5 Z"/></g>
<g><path style="opacity:0.997" fill="#57f0c7" d="M 134.5,62.5 C 139.873,66.844 145.206,71.1773 150.5,75.5C 149.448,75.3505 148.448,75.5172 147.5,76C 111.915,111.084 76.9151,146.584 42.5,182.5C 37.4206,178.963 32.7539,174.963 28.5,170.5C 63.4652,135.035 98.6319,99.7013 134,64.5C 134.464,63.9056 134.631,63.2389 134.5,62.5 Z"/></g>
<g><path style="opacity:0.986" fill="#51bad9" d="M 372.5,65.5 C 372.611,66.1174 372.944,66.6174 373.5,67C 355.632,84.7014 337.965,102.535 320.5,120.5C 316.083,119.028 311.75,117.362 307.5,115.5C 319.447,101.885 332.114,88.8852 345.5,76.5C 348.423,77.295 351.09,78.6284 353.5,80.5C 360.045,75.7324 366.379,70.7324 372.5,65.5 Z"/></g>
<g><path style="opacity:0.991" fill="#52bfd8" d="M 334.5,71.5 C 338.497,72.6027 342.164,74.2694 345.5,76.5C 332.114,88.8852 319.447,101.885 307.5,115.5C 303.018,114.01 298.684,112.343 294.5,110.5C 307.833,97.5 321.167,84.5 334.5,71.5 Z"/></g>
<g><path style="opacity:0.985" fill="#56eac9" d="M 174.5,72.5 C 174.938,72.4346 175.272,72.6012 175.5,73C 158.912,89.0852 142.912,105.585 127.5,122.5C 123.185,119.191 118.852,115.857 114.5,112.5C 104.119,124.879 94.119,137.546 84.5,150.5C 87.2117,152.885 89.8784,155.218 92.5,157.5C 80.253,168.244 68.4197,179.577 57,191.5C 56.5357,192.094 56.369,192.761 56.5,193.5C 51.4313,190.305 46.7646,186.638 42.5,182.5C 76.9151,146.584 111.915,111.084 147.5,76C 148.448,75.5172 149.448,75.3505 150.5,75.5C 152.98,76.9117 155.313,78.5784 157.5,80.5C 162.795,77.0187 168.462,74.352 174.5,72.5 Z"/></g>
<g><path style="opacity:0.974" fill="#54d7cf" d="M 230.5,72.5 C 230.666,79.8409 230.5,87.1742 230,94.5C 228.444,101.385 224.611,106.551 218.5,110C 202.517,114.821 187.517,121.654 173.5,130.5C 191.494,110.833 210.494,91.5001 230.5,72.5 Z"/></g>
<g><path style="opacity:0.99" fill="#4ea5e1" d="M 433.5,76.5 C 437.156,81.1277 440.822,85.7944 444.5,90.5C 443.761,90.369 443.094,90.5357 442.5,91C 430.938,102.729 419.272,114.229 407.5,125.5C 403.716,120.903 399.716,116.57 395.5,112.5C 408.419,100.919 421.085,88.9186 433.5,76.5 Z"/></g>
<g><path style="opacity:0.987" fill="#4e9fe3" d="M 444.5,90.5 C 448.638,94.7646 452.305,99.4313 455.5,104.5C 454.761,104.369 454.094,104.536 453.5,105C 441.965,116.702 430.298,128.202 418.5,139.5C 414.844,134.872 411.178,130.206 407.5,125.5C 419.272,114.229 430.938,102.729 442.5,91C 443.094,90.5357 443.761,90.369 444.5,90.5 Z"/></g>
<g><path style="opacity:0.977" fill="#4d98e6" d="M 455.5,104.5 C 460.302,109.427 464.635,114.76 468.5,120.5C 467.761,120.369 467.094,120.536 466.5,121C 441.965,145.702 417.299,170.202 392.5,194.5C 391.748,186.26 393.915,178.927 399,172.5C 408.311,165.357 417.478,158.023 426.5,150.5C 423.809,146.815 421.142,143.148 418.5,139.5C 430.298,128.202 441.965,116.702 453.5,105C 454.094,104.536 454.761,104.369 455.5,104.5 Z"/></g>
<g><path style="opacity:0.995" fill="#4c92e8" d="M 468.5,120.5 C 472.557,124.284 475.891,128.617 478.5,133.5C 452.167,160.167 425.833,186.833 399.5,213.5C 396.988,207.303 394.654,200.969 392.5,194.5C 417.299,170.202 441.965,145.702 466.5,121C 467.094,120.536 467.761,120.369 468.5,120.5 Z"/></g>
<g><path style="opacity:0.993" fill="#4c8cea" d="M 478.5,133.5 C 483.891,138.276 487.225,144.276 488.5,151.5C 487.883,151.389 487.383,151.056 487,150.5C 458.938,178.395 431.105,206.395 403.5,234.5C 402.325,227.468 400.992,220.468 399.5,213.5C 425.833,186.833 452.167,160.167 478.5,133.5 Z"/></g>
<g><path style="opacity:0.984" fill="#4b86ec" d="M 488.5,151.5 C 488.881,157.974 487.381,163.974 484,169.5C 472.702,179.644 461.036,189.31 449,198.5C 449.341,202.875 450.174,207.209 451.5,211.5C 436.5,225.833 421.833,240.5 407.5,255.5C 406.224,253.438 405.39,251.104 405,248.5C 404.565,243.816 404.065,239.149 403.5,234.5C 431.105,206.395 458.938,178.395 487,150.5C 487.383,151.056 487.883,151.389 488.5,151.5 Z"/></g>
<g><path style="opacity:0.991" fill="#52c4d6" d="M 250.5,155.5 C 218.86,186.806 187.194,218.139 155.5,249.5C 155.674,237.474 158.341,226.141 163.5,215.5C 180.967,199.544 198.3,182.71 215.5,165C 214.944,164.617 214.611,164.117 214.5,163.5C 225.998,158.626 237.998,155.959 250.5,155.5 Z"/></g>
<g><path style="opacity:0.995" fill="#52bfd8" d="M 250.5,155.5 C 255.167,155.5 259.833,155.5 264.5,155.5C 228.883,192.784 192.55,229.451 155.5,265.5C 154.298,260.023 154.298,254.689 155.5,249.5C 187.194,218.139 218.86,186.806 250.5,155.5 Z"/></g>
<g><path style="opacity:0.996" fill="#51bcd9" d="M 264.5,155.5 C 268.387,155.646 272.054,156.313 275.5,157.5C 274.448,157.351 273.448,157.517 272.5,158C 234.25,196.751 195.583,234.918 156.5,272.5C 155.631,270.283 155.298,267.95 155.5,265.5C 192.55,229.451 228.883,192.784 264.5,155.5 Z"/></g>
<g><path style="opacity:0.987" fill="#56e3cb" d="M 92.5,157.5 C 98.4378,161.106 103.771,165.439 108.5,170.5C 91.9186,185.579 75.752,201.246 60,217.5C 59.6174,216.944 59.1174,216.611 58.5,216.5C 59.593,210.961 60.9264,205.461 62.5,200C 60.727,197.616 58.727,195.449 56.5,193.5C 56.369,192.761 56.5357,192.094 57,191.5C 68.4197,179.577 80.253,168.244 92.5,157.5 Z"/></g>
<g><path style="opacity:0.997" fill="#51b8da" d="M 275.5,157.5 C 281.74,158.358 287.74,160.025 293.5,162.5C 278.5,177.167 263.5,191.833 248.5,206.5C 223.652,212.012 209.652,227.345 206.5,252.5C 205.778,252.082 205.278,251.416 205,250.5C 190.631,264.701 176.465,279.035 162.5,293.5C 159.314,286.931 157.314,279.931 156.5,272.5C 195.583,234.918 234.25,196.751 272.5,158C 273.448,157.517 274.448,157.351 275.5,157.5 Z"/></g>
<g><path style="opacity:0.982" fill="#50b2dd" d="M 293.5,162.5 C 300.812,165.153 307.479,168.82 313.5,173.5C 312.448,173.351 311.448,173.517 310.5,174C 298.632,186.035 286.632,197.869 274.5,209.5C 266.045,206.928 257.378,205.928 248.5,206.5C 263.5,191.833 278.5,177.167 293.5,162.5 Z"/></g>
<g><path style="opacity:0.944" fill="#52c9d5" d="M 214.5,163.5 C 214.611,164.117 214.944,164.617 215.5,165C 198.3,182.71 180.967,199.544 163.5,215.5C 173.752,191.581 190.752,174.247 214.5,163.5 Z"/></g>
<g><path style="opacity:0.994" fill="#55ddcd" d="M 108.5,170.5 C 113.781,174.052 116.781,179.052 117.5,185.5C 81.0346,221.465 44.7013,257.632 8.5,294C 7.90558,294.464 7.23891,294.631 6.5,294.5C 5.3403,288.861 4.3403,283.195 3.5,277.5C 3.34332,276.127 3.50999,274.793 4,273.5C 20.3685,257.299 36.5351,240.965 52.5,224.5C 54.1172,223.962 55.7839,223.629 57.5,223.5C 57.6741,221.139 58.0074,218.806 58.5,216.5C 59.1174,216.611 59.6174,216.944 60,217.5C 75.752,201.246 91.9186,185.579 108.5,170.5 Z"/></g>
<g><path style="opacity:0.986" fill="#4fabdf" d="M 313.5,173.5 C 318.152,176.821 322.485,180.487 326.5,184.5C 325.761,184.369 325.094,184.536 324.5,185C 312.965,196.702 301.298,208.202 289.5,219.5C 284.635,215.905 279.635,212.572 274.5,209.5C 286.632,197.869 298.632,186.035 310.5,174C 311.448,173.517 312.448,173.351 313.5,173.5 Z"/></g>
<g><path style="opacity:0.993" fill="#54d7cf" d="M 117.5,185.5 C 118.641,188.64 118.808,191.973 118,195.5C 115.567,202.968 113.067,210.302 110.5,217.5C 78.0336,248.461 45.7003,280.294 13.5,313C 12.9056,313.464 12.2389,313.631 11.5,313.5C 9.70634,307.198 8.03967,300.864 6.5,294.5C 7.23891,294.631 7.90558,294.464 8.5,294C 44.7013,257.632 81.0346,221.465 117.5,185.5 Z"/></g>
<g><path style="opacity:0.99" fill="#4ea5e1" d="M 326.5,184.5 C 330.513,188.515 334.179,192.848 337.5,197.5C 337.19,198.738 336.69,198.738 336,197.5C 323.965,209.702 311.798,221.702 299.5,233.5C 296.657,228.481 293.324,223.814 289.5,219.5C 301.298,208.202 312.965,196.702 324.5,185C 325.094,184.536 325.761,184.369 326.5,184.5 Z"/></g>
<g><path style="opacity:0.987" fill="#4e9fe3" d="M 337.5,197.5 C 340.863,202.216 343.863,207.216 346.5,212.5C 332.868,225.631 319.368,238.965 306,252.5C 305.617,251.944 305.117,251.611 304.5,251.5C 304.387,245.044 302.72,239.044 299.5,233.5C 311.798,221.702 323.965,209.702 336,197.5C 336.69,198.738 337.19,198.738 337.5,197.5 Z"/></g>
<g><path style="opacity:0.986" fill="#4d98e5" d="M 346.5,212.5 C 350.033,219.434 352.367,226.767 353.5,234.5C 313.5,274.167 273.5,313.833 233.5,353.5C 225.948,352.538 218.948,350.205 212.5,346.5C 225.833,332.833 239.167,319.167 252.5,305.5C 284.16,304 301.827,287.5 305.5,256C 304.852,254.56 304.519,253.06 304.5,251.5C 305.117,251.611 305.617,251.944 306,252.5C 319.368,238.965 332.868,225.631 346.5,212.5 Z"/></g>
<g><path style="opacity:0.996" fill="#4b82ed" d="M 451.5,211.5 C 452.04,214.865 452.706,218.198 453.5,221.5C 452.761,221.369 452.094,221.536 451.5,222C 438.272,235.396 424.938,248.562 411.5,261.5C 409.674,259.853 408.34,257.853 407.5,255.5C 421.833,240.5 436.5,225.833 451.5,211.5 Z"/></g>
<g><path style="opacity:0.984" fill="#53d1d2" d="M 110.5,217.5 C 108.396,227.731 106.896,238.064 106,248.5C 104.53,257.94 99.3636,264.44 90.5,268C 79.2441,270.981 67.9107,273.647 56.5,276C 56.2643,281.926 57.2643,287.76 59.5,293.5C 58.7611,293.369 58.0944,293.536 57.5,294C 43.9652,307.702 30.2985,321.202 16.5,334.5C 14.2147,327.76 12.548,320.76 11.5,313.5C 12.2389,313.631 12.9056,313.464 13.5,313C 45.7003,280.294 78.0336,248.461 110.5,217.5 Z"/></g>
<g><path style="opacity:0.994" fill="#497eee" d="M 453.5,221.5 C 453.47,222.497 453.97,223.164 455,223.5C 458.094,224.566 461.26,225.232 464.5,225.5C 464.631,226.239 464.464,226.906 464,227.5C 450.298,241.035 436.798,254.701 423.5,268.5C 418.55,267.695 414.55,265.362 411.5,261.5C 424.938,248.562 438.272,235.396 451.5,222C 452.094,221.536 452.761,221.369 453.5,221.5 Z"/></g>
<g><path style="opacity:0.978" fill="#55e3cb" d="M 52.5,224.5 C 36.5351,240.965 20.3685,257.299 4,273.5C 3.50999,274.793 3.34332,276.127 3.5,277.5C 2.01071,273.208 0.677374,268.875 -0.5,264.5C -0.5,259.5 -0.5,254.5 -0.5,249.5C 2.56003,241.938 7.89337,236.438 15.5,233C 27.8374,230.1 40.1708,227.266 52.5,224.5 Z"/></g>
<g><path style="opacity:0.991" fill="#4979f0" d="M 464.5,225.5 C 471.085,227.418 477.751,229.085 484.5,230.5C 470.5,244.833 456.5,259.167 442.5,273.5C 436.041,271.97 429.708,270.303 423.5,268.5C 436.798,254.701 450.298,241.035 464,227.5C 464.464,226.906 464.631,226.239 464.5,225.5 Z"/></g>
<g><path style="opacity:0.989" fill="#4973f2" d="M 484.5,230.5 C 491.32,231.025 497.32,233.358 502.5,237.5C 486.139,254.193 469.806,270.86 453.5,287.5C 454.337,283.829 454.837,280.163 455,276.5C 450.909,275.269 446.743,274.269 442.5,273.5C 456.5,259.167 470.5,244.833 484.5,230.5 Z"/></g>
<g><path style="opacity:0.989" fill="#486df5" d="M 502.5,237.5 C 506.484,240.82 509.484,244.82 511.5,249.5C 511.5,251.167 511.5,252.833 511.5,254.5C 489.833,275.833 468.167,297.167 446.5,318.5C 448.455,308.056 450.788,297.723 453.5,287.5C 469.806,270.86 486.139,254.193 502.5,237.5 Z"/></g>
<g><path style="opacity:0.994" fill="#4c92e8" d="M 353.5,234.5 C 355.411,242.245 356.411,250.245 356.5,258.5C 355.883,258.389 355.383,258.056 355,257.5C 321.915,290.084 289.415,323.084 257.5,356.5C 249.203,356.789 241.203,355.789 233.5,353.5C 273.5,313.833 313.5,274.167 353.5,234.5 Z"/></g>
<g><path style="opacity:0.987" fill="#50b2dd" d="M 206.5,252.5 C 205.93,260.266 206.93,267.933 209.5,275.5C 196.833,287.5 184.5,299.833 172.5,312.5C 167.882,306.933 164.548,300.6 162.5,293.5C 176.465,279.035 190.631,264.701 205,250.5C 205.278,251.416 205.778,252.082 206.5,252.5 Z"/></g>
<g><path style="opacity:0.992" fill="#4766f7" d="M 511.5,254.5 C 511.5,257.833 511.5,261.167 511.5,264.5C 509.167,273.167 506.833,281.833 504.5,290.5C 477.167,317.167 450.167,344.167 423.5,371.5C 422.127,371.343 420.793,371.51 419.5,372C 415.01,378.32 410.01,384.153 404.5,389.5C 368.229,426.272 331.729,462.938 295,499.5C 294.517,500.448 294.351,501.448 294.5,502.5C 287.946,497.738 283.613,491.405 281.5,483.5C 294.167,471.167 306.833,458.833 319.5,446.5C 334.478,439.345 349.478,432.178 364.5,425C 361.422,419.677 358.755,414.177 356.5,408.5C 385.167,380.5 413.5,352.167 441.5,323.5C 442.833,323.5 444.167,323.5 445.5,323.5C 445.366,321.708 445.699,320.042 446.5,318.5C 468.167,297.167 489.833,275.833 511.5,254.5 Z"/></g>
<g><path style="opacity:0.991" fill="#4c8cea" d="M 356.5,258.5 C 356.014,268.603 354.014,278.27 350.5,287.5C 328.782,308.217 307.782,329.55 287.5,351.5C 277.726,354.455 267.726,356.121 257.5,356.5C 289.415,323.084 321.915,290.084 355,257.5C 355.383,258.056 355.883,258.389 356.5,258.5 Z"/></g>
<g><path style="opacity:0.989" fill="#4fabdf" d="M 209.5,275.5 C 212.497,280.159 215.497,284.825 218.5,289.5C 207.553,302.114 195.887,314.114 183.5,325.5C 178.736,322.072 175.07,317.738 172.5,312.5C 184.5,299.833 196.833,287.5 209.5,275.5 Z"/></g>
<g><path style="opacity:0.964" fill="#4b88eb" d="M 350.5,287.5 C 344.398,307.849 332.731,324.349 315.5,337C 306.862,343.152 297.529,347.986 287.5,351.5C 307.782,329.55 328.782,308.217 350.5,287.5 Z"/></g>
<g><path style="opacity:0.989" fill="#4ea5e1" d="M 218.5,289.5 C 223.243,293.585 228.243,297.251 233.5,300.5C 221.368,312.131 209.368,323.965 197.5,336C 196.906,336.464 196.239,336.631 195.5,336.5C 190.874,333.542 186.874,329.876 183.5,325.5C 195.887,314.114 207.553,302.114 218.5,289.5 Z"/></g>
<g><path style="opacity:0.993" fill="#4762f9" d="M 504.5,290.5 C 503.969,295.62 502.969,300.62 501.5,305.5C 478.5,327.833 455.833,350.5 433.5,373.5C 430.012,373.46 426.679,372.793 423.5,371.5C 450.167,344.167 477.167,317.167 504.5,290.5 Z"/></g>
<g><path style="opacity:0.987" fill="#4e9fe3" d="M 233.5,300.5 C 239.612,302.945 245.945,304.611 252.5,305.5C 239.167,319.167 225.833,332.833 212.5,346.5C 206.332,343.92 200.665,340.586 195.5,336.5C 196.239,336.631 196.906,336.464 197.5,336C 209.368,323.965 221.368,312.131 233.5,300.5 Z"/></g>
<g><path style="opacity:0.991" fill="#465ffa" d="M 501.5,305.5 C 500.294,311.533 498.96,317.533 497.5,323.5C 478.884,340.448 460.884,358.115 443.5,376.5C 439.975,375.79 436.642,374.79 433.5,373.5C 455.833,350.5 478.5,327.833 501.5,305.5 Z"/></g>
<g><path style="opacity:0.991" fill="#53cad4" d="M 59.5,293.5 C 60.9108,301.554 62.5774,309.554 64.5,317.5C 50.1667,330.833 35.8333,344.167 21.5,357.5C 19.3652,349.958 17.6985,342.291 16.5,334.5C 30.2985,321.202 43.9652,307.702 57.5,294C 58.0944,293.536 58.7611,293.369 59.5,293.5 Z"/></g>
<g><path style="opacity:0.99" fill="#52bfd8" d="M 103.5,316.5 C 103.631,317.239 103.464,317.906 103,318.5C 82.6317,338.701 62.465,359.035 42.5,379.5C 37.2217,379.358 32.8884,377.358 29.5,373.5C 30.552,373.649 31.552,373.483 32.5,373C 50.0351,355.632 67.3684,338.132 84.5,320.5C 90.5072,318.164 96.8405,316.831 103.5,316.5 Z"/></g>
<g><path style="opacity:0.97" fill="#4972f3" d="M 421.5,318.5 C 397.868,342.632 374.035,366.632 350,390.5C 349.536,391.094 349.369,391.761 349.5,392.5C 347.206,385.825 347.706,379.159 351,372.5C 358.333,364.5 365.667,356.5 373,348.5C 378.747,341.346 383.747,333.679 388,325.5C 397.63,316.356 408.796,314.023 421.5,318.5 Z"/></g>
<g><path style="opacity:0.988" fill="#52c4d6" d="M 64.5,317.5 C 65.1495,319.435 65.4828,321.435 65.5,323.5C 71.8586,322.66 78.1919,321.66 84.5,320.5C 67.3684,338.132 50.0351,355.632 32.5,373C 31.552,373.483 30.552,373.649 29.5,373.5C 24.7342,369.302 22.0676,363.969 21.5,357.5C 35.8333,344.167 50.1667,330.833 64.5,317.5 Z"/></g>
<g><path style="opacity:0.991" fill="#50bbd9" d="M 103.5,316.5 C 109.593,316.75 114.926,318.75 119.5,322.5C 100.833,339.494 82.5001,357.494 64.5,376.5C 57.3523,379.462 50.0189,380.462 42.5,379.5C 62.465,359.035 82.6317,338.701 103,318.5C 103.464,317.906 103.631,317.239 103.5,316.5 Z"/></g>
<g><path style="opacity:0.993" fill="#486df5" d="M 421.5,318.5 C 428.145,320.163 434.812,321.83 441.5,323.5C 413.5,352.167 385.167,380.5 356.5,408.5C 353.649,403.459 351.316,398.125 349.5,392.5C 349.369,391.761 349.536,391.094 350,390.5C 374.035,366.632 397.868,342.632 421.5,318.5 Z"/></g>
<g><path style="opacity:0.993" fill="#51b7db" d="M 119.5,322.5 C 121.89,323.891 123.557,325.891 124.5,328.5C 124.649,329.552 124.483,330.552 124,331.5C 110.298,345.035 96.7981,358.701 83.5,372.5C 77.2895,374.302 70.9562,375.635 64.5,376.5C 82.5001,357.494 100.833,339.494 119.5,322.5 Z"/></g>
<g><path style="opacity:0.982" fill="#465afb" d="M 497.5,323.5 C 494.445,338.721 490.611,353.721 486,368.5C 480.873,376.399 473.54,380.399 464,380.5C 457.121,379.357 450.287,378.024 443.5,376.5C 460.884,358.115 478.884,340.448 497.5,323.5 Z"/></g>
<g><path style="opacity:0.988" fill="#50b2dd" d="M 124.5,328.5 C 128.074,334.749 132.074,340.749 136.5,346.5C 124.833,359.167 113.167,371.833 101.5,384.5C 98.0658,380.494 94.7325,376.328 91.5,372C 88.8078,371.57 86.1411,371.737 83.5,372.5C 96.7981,358.701 110.298,345.035 124,331.5C 124.483,330.552 124.649,329.552 124.5,328.5 Z"/></g>
<g><path style="opacity:0.987" fill="#4faadf" d="M 136.5,346.5 C 140.431,351.77 144.764,356.77 149.5,361.5C 131.783,380.218 113.449,398.218 94.5,415.5C 98.494,407.196 102.494,398.863 106.5,390.5C 104.81,388.481 103.144,386.481 101.5,384.5C 113.167,371.833 124.833,359.167 136.5,346.5 Z"/></g>
<g><path style="opacity:0.992" fill="#4ea5e1" d="M 149.5,361.5 C 153.876,364.874 157.542,368.874 160.5,373.5C 136.5,397.167 112.5,420.833 88.5,444.5C 87.3503,439.684 87.1837,434.684 88,429.5C 89.9072,424.687 92.0739,420.02 94.5,415.5C 113.449,398.218 131.783,380.218 149.5,361.5 Z"/></g>
<g><path style="opacity:0.992" fill="#4e9fe3" d="M 160.5,373.5 C 164.718,383.406 163.718,392.739 157.5,401.5C 137.782,420.217 118.782,439.551 100.5,459.5C 94.2739,456.275 90.2739,451.275 88.5,444.5C 112.5,420.833 136.5,397.167 160.5,373.5 Z"/></g>
<g><path style="opacity:0.997" fill="#4762f9" d="M 404.5,389.5 C 405.5,392.167 406.5,394.833 407.5,397.5C 407.631,398.239 407.464,398.906 407,399.5C 371.632,434.701 336.465,470.035 301.5,505.5C 299.085,504.695 296.751,503.695 294.5,502.5C 294.351,501.448 294.517,500.448 295,499.5C 331.729,462.938 368.229,426.272 404.5,389.5 Z"/></g>
<g><path style="opacity:0.997" fill="#465ffa" d="M 407.5,397.5 C 409.592,400.088 410.925,403.088 411.5,406.5C 380.252,439.249 348.418,471.583 316,503.5C 315.536,504.094 315.369,504.761 315.5,505.5C 310.833,506.833 306.167,506.833 301.5,505.5C 336.465,470.035 371.632,434.701 407,399.5C 407.464,398.906 407.631,398.239 407.5,397.5 Z"/></g>
<g><path style="opacity:0.985" fill="#4d99e5" d="M 157.5,401.5 C 154.526,409.617 150.859,417.451 146.5,425C 150.056,426.608 153.389,428.441 156.5,430.5C 144.702,442.798 132.702,454.965 120.5,467C 119.552,467.483 118.552,467.649 117.5,467.5C 111.643,465.07 105.977,462.403 100.5,459.5C 118.782,439.551 137.782,420.217 157.5,401.5 Z"/></g>
<g><path style="opacity:0.955" fill="#4c8bea" d="M 231.5,403.5 C 231.611,404.117 231.944,404.617 232.5,405C 219.581,418.422 206.247,431.256 192.5,443.5C 197.05,433.4 201.883,423.4 207,413.5C 213.32,405.779 221.487,402.446 231.5,403.5 Z"/></g>
<g><path style="opacity:0.994" fill="#4b86ec" d="M 231.5,403.5 C 238.13,404.495 244.797,405.162 251.5,405.5C 252.609,406.29 253.942,406.79 255.5,407C 226.965,435.702 198.299,464.202 169.5,492.5C 164.311,490.403 159.311,488.07 154.5,485.5C 154.389,484.883 154.056,484.383 153.5,484C 166.035,471.632 178.369,459.132 190.5,446.5C 191.167,445.5 191.833,444.5 192.5,443.5C 206.247,431.256 219.581,418.422 232.5,405C 231.944,404.617 231.611,404.117 231.5,403.5 Z"/></g>
<g><path style="opacity:0.995" fill="#4a7eef" d="M 287.5,403.5 C 254.833,436.5 222.167,469.5 189.5,502.5C 185.182,501.008 181.182,499.008 177.5,496.5C 207.5,466.167 237.5,435.833 267.5,405.5C 273.937,403.961 280.604,403.294 287.5,403.5 Z"/></g>
<g><path style="opacity:0.987" fill="#4979f0" d="M 287.5,403.5 C 293.637,404.73 298.637,407.73 302.5,412.5C 288.14,427.527 273.473,442.194 258.5,456.5C 253.125,456.172 247.792,456.505 242.5,457.5C 236.606,470.289 230.439,482.956 224,495.5C 214.193,506.495 202.693,508.828 189.5,502.5C 222.167,469.5 254.833,436.5 287.5,403.5 Z"/></g>
<g><path style="opacity:0.997" fill="#4a82ed" d="M 251.5,405.5 C 256.833,405.5 262.167,405.5 267.5,405.5C 237.5,435.833 207.5,466.167 177.5,496.5C 174.515,495.674 171.849,494.341 169.5,492.5C 198.299,464.202 226.965,435.702 255.5,407C 253.942,406.79 252.609,406.29 251.5,405.5 Z"/></g>
<g><path style="opacity:0.988" fill="#465afb" d="M 411.5,406.5 C 414.674,411.516 417.341,416.849 419.5,422.5C 419.649,423.552 419.483,424.552 419,425.5C 399.965,444.368 381.132,463.368 362.5,482.5C 347.021,490.405 331.354,498.072 315.5,505.5C 315.369,504.761 315.536,504.094 316,503.5C 348.418,471.583 380.252,439.249 411.5,406.5 Z"/></g>
<g><path style="opacity:0.986" fill="#4973f2" d="M 302.5,412.5 C 306.26,417.684 309.26,423.35 311.5,429.5C 298.473,441.86 285.806,454.527 273.5,467.5C 271.847,464.193 270.18,460.86 268.5,457.5C 265.232,456.513 261.898,456.18 258.5,456.5C 273.473,442.194 288.14,427.527 302.5,412.5 Z"/></g>
<g><path style="opacity:0.981" fill="#4554fd" d="M 419.5,422.5 C 422.729,426.702 424.062,431.536 423.5,437C 423.845,446.31 420.178,453.644 412.5,459C 395.932,467.118 379.266,474.951 362.5,482.5C 381.132,463.368 399.965,444.368 419,425.5C 419.483,424.552 419.649,423.552 419.5,422.5 Z"/></g>
<g><path style="opacity:0.988" fill="#486df5" d="M 311.5,429.5 C 314.955,434.746 317.622,440.413 319.5,446.5C 306.833,458.833 294.167,471.167 281.5,483.5C 278.323,478.48 275.657,473.146 273.5,467.5C 285.806,454.527 298.473,441.86 311.5,429.5 Z"/></g>
<g><path style="opacity:0.989" fill="#4c92e8" d="M 156.5,430.5 C 162.598,432.384 168.265,435.051 173.5,438.5C 161.167,451.167 148.833,463.833 136.5,476.5C 129.734,474.282 123.401,471.282 117.5,467.5C 118.552,467.649 119.552,467.483 120.5,467C 132.702,454.965 144.702,442.798 156.5,430.5 Z"/></g>
<g><path style="opacity:0.988" fill="#4c8cea" d="M 173.5,438.5 C 179.357,440.93 185.023,443.597 190.5,446.5C 178.369,459.132 166.035,471.632 153.5,484C 154.056,484.383 154.389,484.883 154.5,485.5C 148.182,483.008 142.182,480.008 136.5,476.5C 148.833,463.833 161.167,451.167 173.5,438.5 Z"/></g>
</svg>
