<svg xmlns="http://www.w3.org/2000/svg" viewBox="0 0 512 512">
  <defs>
    <linearGradient id="g" x1="0%" y1="0%" x2="100%" y2="100%">
      <stop offset="0%" style="stop-color:#6366f1;stop-opacity:1" />
      <stop offset="100%" style="stop-color:#3b82f6;stop-opacity:1" />
    </linearGradient>
  </defs>
  <path fill="url(#g)" d="M501.95 303.85l-59.5-34.36c.64-6.62.97-13.36.97-20.17 0-6.81-.33-13.55-.97-20.17l59.5-34.37c21-12.13 22.87-43.14 3.32-57.8l-59.5-44.64c-11.45-8.59-27.14-7.85-37.86 1.77l-47.53 42.74c-11.41-5.69-23.47-10.42-36.03-14.07l-9.52-63.53C311.97 22.69 292.06 6.5 271.3 6.5h-74.6c-20.76 0-40.67 16.19-43.53 52.75l-9.52 63.53c-12.56 3.65-24.62 8.38-36.03 14.07l-47.53-42.74c-10.72-9.62-26.41-10.36-37.86-1.77L15.37 137c-19.55 14.66-17.68 45.67 3.32 57.8l59.5 34.37c-.64 6.62-.97 13.36-.97 20.17 0 6.81.33 13.55.97 20.17l-59.5 34.37c-21 12.13-22.87 43.14-3.32 57.8l59.5 44.64c11.45 8.59 27.14 7.85 37.86-1.77l47.53-42.74c11.41 5.69 23.47 10.42 36.03 14.07l9.52 63.53c2.86 36.56 22.77 52.75 43.53 52.75h74.6c20.76 0 40.67-16.19 43.53-52.75l9.52-63.53c12.56-3.65 24.62-8.38 36.03-14.07l47.53 42.74c10.72 9.62 26.41 10.36 37.86 1.77l59.5-44.64c19.56-14.67 17.69-45.68-3.31-57.82zM234 329.5c-51.09 0-92.5-41.41-92.5-92.5s41.41-92.5 92.5-92.5 92.5 41.41 92.5 92.5-41.41 92.5-92.5 92.5z"/>
</svg>
